<mxfile host="drawio-plugin" modified="2023-11-15T15:23:03.309Z" agent="5.0 (Windows NT 10.0; Win64; x64) AppleWebKit/537.36 (KHTML, like Gecko) Chrome/111.0.0.0 Safari/537.36" etag="WrdSrYN6HdiWzXGR4WG8" version="20.5.3" type="embed"><diagram name="Страница — 1" id="zZcoI_cOjoY40EDSNuOF"><mxGraphModel dx="475" dy="460" grid="1" gridSize="10" guides="1" tooltips="1" connect="1" arrows="1" fold="1" page="1" pageScale="1" pageWidth="827" pageHeight="1169" math="0" shadow="0"><root><mxCell id="0"/><mxCell id="1" parent="0"/><mxCell id="43-3Vlr531xwtuqZv3u2-24" style="edgeStyle=orthogonalEdgeStyle;rounded=0;orthogonalLoop=1;jettySize=auto;html=1;endArrow=open;endFill=0;" parent="1" source="43-3Vlr531xwtuqZv3u2-1" target="43-3Vlr531xwtuqZv3u2-10" edge="1"><mxGeometry relative="1" as="geometry"/></mxCell><mxCell id="43-3Vlr531xwtuqZv3u2-1" value="&lt;b&gt;GameEngineAdapter&lt;/b&gt;" style="swimlane;fontStyle=0;childLayout=stackLayout;horizontal=1;startSize=30;horizontalStack=0;resizeParent=1;resizeParentMax=0;resizeLast=0;collapsible=1;marginBottom=0;whiteSpace=wrap;html=1;" parent="1" vertex="1"><mxGeometry x="280" y="220" width="330" height="120" as="geometry"/></mxCell><mxCell id="43-3Vlr531xwtuqZv3u2-2" value="- NewGameEngine: newGameEngine" style="text;strokeColor=default;fillColor=none;align=left;verticalAlign=middle;spacingLeft=4;spacingRight=4;overflow=hidden;points=[[0,0.5],[1,0.5]];portConstraint=eastwest;rotatable=0;whiteSpace=wrap;html=1;" parent="43-3Vlr531xwtuqZv3u2-1" vertex="1"><mxGeometry y="30" width="330" height="30" as="geometry"/></mxCell><mxCell id="43-3Vlr531xwtuqZv3u2-3" value="&lt;div style=&quot;&quot;&gt;&lt;pre style=&quot;&quot;&gt;&lt;div style=&quot;&quot;&gt;&lt;pre style=&quot;&quot;&gt;&lt;font color=&quot;#ffffff&quot; face=&quot;Helvetica&quot; style=&quot;&quot;&gt;+ GameEngineAdapter(NewGameEngine: newGameEngine)&lt;/font&gt;&lt;/pre&gt;&lt;/div&gt;&lt;/pre&gt;&lt;/div&gt;" style="text;align=left;verticalAlign=middle;spacingLeft=4;spacingRight=4;overflow=hidden;points=[[0,0.5],[1,0.5]];portConstraint=eastwest;rotatable=0;whiteSpace=wrap;html=1;" parent="43-3Vlr531xwtuqZv3u2-1" vertex="1"><mxGeometry y="60" width="330" height="30" as="geometry"/></mxCell><mxCell id="43-3Vlr531xwtuqZv3u2-4" value="+ startOldGameEngine" style="text;strokeColor=none;fillColor=none;align=left;verticalAlign=middle;spacingLeft=4;spacingRight=4;overflow=hidden;points=[[0,0.5],[1,0.5]];portConstraint=eastwest;rotatable=0;whiteSpace=wrap;html=1;" parent="43-3Vlr531xwtuqZv3u2-1" vertex="1"><mxGeometry y="90" width="330" height="30" as="geometry"/></mxCell><mxCell id="43-3Vlr531xwtuqZv3u2-22" style="edgeStyle=orthogonalEdgeStyle;rounded=0;orthogonalLoop=1;jettySize=auto;html=1;entryX=0.5;entryY=0;entryDx=0;entryDy=0;endArrow=none;endFill=0;startArrow=block;startFill=0;" parent="1" source="43-3Vlr531xwtuqZv3u2-6" target="43-3Vlr531xwtuqZv3u2-1" edge="1"><mxGeometry relative="1" as="geometry"/></mxCell><mxCell id="43-3Vlr531xwtuqZv3u2-6" value="&lt;b&gt;OldGameEngineClass&lt;/b&gt;" style="swimlane;fontStyle=0;childLayout=stackLayout;horizontal=1;startSize=30;horizontalStack=0;resizeParent=1;resizeParentMax=0;resizeLast=0;collapsible=1;marginBottom=0;whiteSpace=wrap;html=1;" parent="1" vertex="1"><mxGeometry x="365" y="90" width="160" height="60" as="geometry"/></mxCell><mxCell id="43-3Vlr531xwtuqZv3u2-7" value="- startOldGameEngine" style="text;strokeColor=none;fillColor=none;align=left;verticalAlign=middle;spacingLeft=4;spacingRight=4;overflow=hidden;points=[[0,0.5],[1,0.5]];portConstraint=eastwest;rotatable=0;whiteSpace=wrap;html=1;" parent="43-3Vlr531xwtuqZv3u2-6" vertex="1"><mxGeometry y="30" width="160" height="30" as="geometry"/></mxCell><mxCell id="43-3Vlr531xwtuqZv3u2-10" value="&lt;b&gt;NewGameEngineClass&lt;/b&gt;" style="swimlane;fontStyle=0;childLayout=stackLayout;horizontal=1;startSize=30;horizontalStack=0;resizeParent=1;resizeParentMax=0;resizeLast=0;collapsible=1;marginBottom=0;whiteSpace=wrap;html=1;" parent="1" vertex="1"><mxGeometry x="50" y="250" width="160" height="60" as="geometry"/></mxCell><mxCell id="43-3Vlr531xwtuqZv3u2-11" value="+ startNewGameEngine" style="text;strokeColor=none;fillColor=none;align=left;verticalAlign=middle;spacingLeft=4;spacingRight=4;overflow=hidden;points=[[0,0.5],[1,0.5]];portConstraint=eastwest;rotatable=0;whiteSpace=wrap;html=1;" parent="43-3Vlr531xwtuqZv3u2-10" vertex="1"><mxGeometry y="30" width="160" height="30" as="geometry"/></mxCell><mxCell id="43-3Vlr531xwtuqZv3u2-25" style="edgeStyle=orthogonalEdgeStyle;rounded=0;orthogonalLoop=1;jettySize=auto;html=1;entryX=0;entryY=0.5;entryDx=0;entryDy=0;endArrow=open;endFill=0;" parent="1" source="43-3Vlr531xwtuqZv3u2-15" target="43-3Vlr531xwtuqZv3u2-6" edge="1"><mxGeometry relative="1" as="geometry"/></mxCell><mxCell id="43-3Vlr531xwtuqZv3u2-15" value="&lt;b&gt;OldGameEngine&lt;/b&gt;" style="swimlane;fontStyle=0;childLayout=stackLayout;horizontal=1;startSize=30;horizontalStack=0;resizeParent=1;resizeParentMax=0;resizeLast=0;collapsible=1;marginBottom=0;whiteSpace=wrap;html=1;" parent="1" vertex="1"><mxGeometry x="70" y="90" width="140" height="60" as="geometry"/></mxCell><mxCell id="43-3Vlr531xwtuqZv3u2-18" value="startOldGameEngine" style="text;strokeColor=none;fillColor=none;align=left;verticalAlign=middle;spacingLeft=4;spacingRight=4;overflow=hidden;points=[[0,0.5],[1,0.5]];portConstraint=eastwest;rotatable=0;whiteSpace=wrap;html=1;" parent="43-3Vlr531xwtuqZv3u2-15" vertex="1"><mxGeometry y="30" width="140" height="30" as="geometry"/></mxCell></root></mxGraphModel></diagram></mxfile>